<svg width="300" height="104" viewBox="0 0 300 104" fill="none" xmlns="http://www.w3.org/2000/svg">
<path d="M116.406 67.0603C124.826 67.0603 130.759 62.5318 130.759 55.1198C130.759 47.0275 124.092 44.9327 117.828 42.9646C111.839 41.1542 110.31 39.8611 110.31 37.4198C110.31 35.1568 112.234 33.4577 115.511 33.4577C119.525 33.4577 121.671 35.5525 123.083 38.5525L129.639 34.7585C126.983 29.2008 122 25.862 115.501 25.862C108.72 25.862 102.502 30.1629 102.502 37.6318C102.502 45.1603 108.381 47.718 114.427 49.4611C120.306 51.1577 122.962 52.2904 122.962 55.2336C122.962 57.4396 121.322 59.4206 116.631 59.4206C111.717 59.4206 108.945 57.0439 107.533 53.3637L100.863 57.2689C103.009 63.1551 108.324 67.0603 116.406 67.0603Z" fill="white"/>
<path d="M149.129 37.1799C144.991 37.1799 142.009 38.7084 139.973 41.3179V37.9739H132.673V77.5868H139.963V62.9308C141.998 65.5325 144.993 67.0687 149.118 67.0687C156.691 67.0687 162.908 60.5592 162.908 52.1282C162.908 43.6972 156.701 37.1799 149.129 37.1799ZM147.773 60.1015C143.307 60.1015 139.973 56.8739 139.973 52.1204C139.973 47.367 143.307 44.142 147.773 44.142C152.294 44.142 155.628 47.367 155.628 52.1204C155.628 56.8739 152.294 60.1015 147.773 60.1015Z" fill="white"/>
<path d="M180.946 37.1799C177.16 37.1799 174.222 38.5946 172.526 41.142V26.6592H165.235V66.2696H172.526V50.9903C172.526 46.0765 175.182 43.9713 178.733 43.9713C182.009 43.9713 184.327 45.9523 184.327 49.8006V66.2696H191.638V48.8954C191.638 41.3799 186.936 37.1799 180.946 37.1799Z" fill="white"/>
<path d="M201.189 55.1205H222.494C222.679 54.131 222.774 53.127 222.779 52.1204C222.779 43.8032 216.843 37.1799 208.48 37.1799C199.606 37.1799 193.56 43.6894 193.56 52.1204C193.56 60.5515 199.549 67.061 209.043 67.061C214.474 67.061 218.708 64.8549 221.364 61.0067L215.488 57.611C214.244 59.2506 211.984 60.4403 209.157 60.4403C205.314 60.4403 202.206 58.8549 201.189 55.1205ZM201.075 49.4618C201.924 45.8411 204.58 43.7463 208.48 43.7463C211.531 43.7463 214.583 45.386 215.488 49.4618H201.075Z" fill="white"/>
<path d="M232.332 42.8408V37.9735H225.041V66.2692H232.332V52.7434C232.332 46.7951 237.137 45.1037 240.923 45.5563V37.4072C237.362 37.4072 233.793 38.9925 232.332 42.8408Z" fill="white"/>
<path d="M256.327 67.061C264.634 67.061 271.304 60.5515 271.304 52.1204C271.304 43.6894 264.634 37.1799 256.327 37.1799C248.02 37.1799 241.407 43.6894 241.407 52.1204C241.407 60.5515 248.018 67.061 256.327 67.061ZM256.327 59.9308C252.031 59.9308 248.698 56.7058 248.698 52.1204C248.698 47.5351 252.031 44.3101 256.327 44.3101C260.677 44.3101 264.013 47.5377 264.013 52.1204C264.013 56.7032 260.69 59.9308 256.327 59.9308Z" fill="white"/>
<path d="M289.319 37.1799C285.533 37.1799 282.595 38.5946 280.896 41.142V37.9739H273.605V66.2696H280.896V50.9903C280.896 46.0765 283.554 43.9713 287.103 43.9713C290.382 43.9713 292.699 45.9523 292.699 49.8006V66.2696H300V48.8954C300 41.3799 295.309 37.1799 289.319 37.1799Z" fill="white"/>
<path d="M66.0414 1.49224V21.406C66.041 21.9225 65.9075 22.4301 65.6538 22.8799C65.4001 23.3297 65.0348 23.7066 64.5931 23.9741L64.469 24.0466L59.8138 26.7284L32.7155 42.3129L29.4259 44.2034C29.3702 44.228 29.3173 44.2583 29.2681 44.294C29.0633 44.4314 28.8954 44.6171 28.7794 44.8347C28.6633 45.0523 28.6026 45.2952 28.6026 45.5418C28.6026 45.7885 28.6633 46.0313 28.7794 46.2489C28.8954 46.4666 29.0633 46.6523 29.2681 46.7897L29.3922 46.8621L33.1035 49.0138L45.7759 56.3069L46.0009 56.4388C46.1993 56.5761 46.3615 56.7595 46.4735 56.9732C46.5855 57.1869 46.6441 57.4246 46.6441 57.666C46.6441 57.9073 46.5855 58.145 46.4735 58.3587C46.3615 58.5724 46.1993 58.7558 46.0009 58.8931L45.781 59.0172L22.6267 72.3569L22.4974 72.4319C22.0592 72.6723 21.5671 72.7978 21.0672 72.7966C20.6197 72.7949 20.1781 72.6943 19.7741 72.5017L19.6448 72.4345L19.4483 72.3181L6.02069 64.5983L1.575 62.0405C1.53362 62.0198 1.49224 61.994 1.44828 61.9681C1.0189 61.7061 0.662974 61.3395 0.413796 60.9026C0.143172 60.45 0.000179717 59.9325 2.65022e-06 59.4052V38.625C-0.000675912 38.1158 0.12896 37.6148 0.376577 37.1698C0.624194 36.7248 0.981554 36.3506 1.41466 36.0828C1.42459 36.0733 1.43593 36.0654 1.44828 36.0595C1.49716 36.0284 1.54815 36.0007 1.60086 35.9767L1.62155 35.9612L6.01811 33.4319L20.8552 24.8974L38.7362 14.6121L63.6983 0.258623C63.7376 0.231068 63.7791 0.206846 63.8224 0.186209C64.0414 0.0640098 64.288 -9.42041e-05 64.5388 2.22968e-06C64.7361 -0.000337688 64.9316 0.0381913 65.114 0.113389C65.2964 0.188588 65.4623 0.298982 65.602 0.43827C65.7418 0.577558 65.8528 0.743012 65.9286 0.925184C66.0044 1.10736 66.0436 1.30268 66.044 1.5L66.0414 1.49224Z" fill="white"/>
<path d="M86.8965 44.0428V64.823C86.8959 65.3387 86.7623 65.8455 86.5086 66.2945C86.2549 66.7435 85.8897 67.1194 85.4482 67.3859L85.3215 67.4584L80.8758 70.0187L75.2585 73.2515L66.0465 78.5506L48.1602 88.8359L23.2033 103.189C23.1635 103.216 23.122 103.24 23.0792 103.262C22.8592 103.383 22.6117 103.447 22.3602 103.445C22.1629 103.446 21.9675 103.407 21.785 103.332C21.6026 103.257 21.4368 103.146 21.297 103.007C21.1572 102.868 21.0463 102.702 20.9704 102.52C20.8946 102.338 20.8554 102.143 20.8551 101.945V82.0316C20.8546 81.5157 20.9878 81.0085 21.2416 80.5594C21.4954 80.1102 21.8612 79.7345 22.3033 79.4687C22.3628 79.4299 22.4275 79.3963 22.487 79.3652L27.0904 76.7144L54.1809 61.1299L57.4266 59.2627L57.6361 59.1437L57.6568 59.1308C57.8555 58.9927 58.0178 58.8087 58.1299 58.5943C58.242 58.3799 58.3006 58.1416 58.3008 57.8997C58.2987 57.6538 58.2371 57.412 58.1214 57.1949C58.0057 56.9779 57.8392 56.792 57.6361 56.6532C57.5882 56.6213 57.538 56.5928 57.4861 56.5678L53.793 54.4316L41.1206 47.1359L40.8775 46.9937C40.6837 46.856 40.5257 46.6739 40.4167 46.4627C40.3077 46.2514 40.2508 46.0172 40.2508 45.7795C40.2508 45.5418 40.3077 45.3075 40.4167 45.0963C40.5257 44.885 40.6837 44.703 40.8775 44.5653L41.1361 44.4204C41.1482 44.412 41.1612 44.405 41.1749 44.3997L64.2749 31.1066L64.4559 31.0032C64.8866 30.7782 65.3653 30.6606 65.8512 30.6606C66.3371 30.6606 66.8158 30.7782 67.2465 31.0032L67.443 31.117L80.9068 38.8601L85.3525 41.4204C85.3955 41.4417 85.437 41.4658 85.4766 41.4928C85.9063 41.7534 86.2623 42.1192 86.5111 42.5558C86.7794 43.01 86.9197 43.5283 86.9171 44.0558L86.8965 44.0428Z" fill="white"/>
</svg>
