<svg width="250" height="298" viewBox="0 0 250 298" fill="none" xmlns="http://www.w3.org/2000/svg">
<g clip-path="url(#clip0_2688_11303)">
<path d="M190.003 4.29564V61.5873C190.001 63.0733 189.617 64.5337 188.886 65.8276C188.155 67.1214 187.103 68.2049 185.831 68.9732L185.474 69.184L172.066 76.8849L94.1221 121.731L84.6603 127.173C84.6603 127.173 84.6379 127.173 84.633 127.197C84.4741 127.262 84.3235 127.345 84.1841 127.445C83.5953 127.841 83.1128 128.374 82.7792 129C82.4456 129.626 82.2711 130.324 82.2711 131.033C82.2711 131.742 82.4456 132.44 82.7792 133.066C83.1128 133.692 83.5953 134.225 84.1841 134.621C84.2981 134.699 84.4175 134.769 84.5412 134.831L95.2605 140.997L131.739 161.982C131.748 161.982 131.757 161.987 131.763 161.994L132.411 162.374C132.983 162.768 133.45 163.296 133.773 163.911C134.096 164.526 134.265 165.21 134.265 165.905C134.265 166.6 134.096 167.285 133.773 167.9C133.45 168.515 132.983 169.042 132.411 169.437L131.778 169.794L65.0968 208.172L64.7272 208.383C63.4644 209.074 62.0473 209.435 60.6077 209.432C59.3102 209.429 58.0294 209.139 56.8577 208.581L56.4881 208.385L55.9202 208.056L17.319 185.851L4.52882 178.487C4.40505 178.425 4.28498 178.355 4.1692 178.279C2.92613 177.53 1.89485 176.477 1.17317 175.218C0.400035 173.913 -0.0053372 172.422 5.30629e-05 170.905V111.111C-0.00150115 109.647 0.371386 108.206 1.08329 106.927C1.79519 105.647 2.82246 104.57 4.06751 103.8C4.09796 103.772 4.13219 103.748 4.1692 103.73C4.3081 103.638 4.45311 103.555 4.60323 103.482C4.6255 103.472 4.64633 103.458 4.66523 103.442L17.314 96.1607L59.9951 71.6071L111.446 42.0362L183.259 0.74405C183.374 0.66657 183.494 0.596966 183.619 0.535717C184.248 0.183738 184.958 -0.000716611 185.68 2.86302e-06C186.825 -0.00131473 187.925 0.452191 188.736 1.26089C189.548 2.0696 190.005 3.16735 190.007 4.313L190.003 4.29564Z" fill="#030B1C"/>
<path d="M250 126.709V186.493C250 187.977 249.616 189.436 248.886 190.728C248.155 192.02 247.103 193.101 245.831 193.866C245.709 193.946 245.583 194.013 245.471 194.077L232.681 201.441L216.5 210.746L190.002 225.987L138.559 255.583L66.7559 296.875C66.6414 296.952 66.5221 297.022 66.3987 297.083C65.7646 297.433 65.0518 297.614 64.3278 297.612C63.1815 297.613 62.0815 297.159 61.2696 296.35C60.4576 295.541 60.0001 294.442 59.9974 293.296V236.004C59.9971 234.52 60.3808 233.061 61.1114 231.769C61.842 230.477 62.8945 229.396 64.1666 228.631C64.3377 228.522 64.5212 228.42 64.6973 228.331L77.9364 220.704L155.878 175.87L165.218 170.501C165.225 170.503 165.233 170.503 165.24 170.501L165.838 170.161C165.859 170.146 165.88 170.133 165.903 170.121C166.473 169.724 166.939 169.195 167.261 168.579C167.582 167.962 167.75 167.277 167.75 166.582C167.746 165.874 167.57 165.178 167.237 164.553C166.904 163.928 166.424 163.394 165.838 162.996C165.701 162.901 165.557 162.819 165.407 162.748L154.742 156.61L118.254 135.613C118.247 135.615 118.239 135.615 118.232 135.613L117.532 135.203H117.52C116.962 134.808 116.507 134.285 116.192 133.679C115.877 133.072 115.713 132.399 115.711 131.715C115.71 131.032 115.872 130.358 116.184 129.749C116.496 129.141 116.949 128.617 117.505 128.219C117.505 128.219 117.505 128.219 117.527 128.219L118.254 127.8C118.288 127.775 118.324 127.755 118.363 127.738L184.831 89.4989L185.35 89.1988C186.587 88.5478 187.963 88.2058 189.361 88.2019C190.759 88.198 192.137 88.5324 193.378 89.1765L193.946 89.5064L232.676 111.783L245.469 119.144C245.591 119.208 245.711 119.278 245.826 119.355C247.07 120.103 248.102 121.157 248.824 122.416C249.597 123.721 250.001 125.212 249.995 126.729L250 126.709Z" fill="#030B1C"/>
</g>
<defs>
<clipPath id="clip0_2688_11303">
<rect width="250" height="297.619" fill="white"/>
</clipPath>
</defs>
</svg>
