<svg width="64" height="64" viewBox="0 0 64 64" fill="none" xmlns="http://www.w3.org/2000/svg">
<circle cx="32" cy="32" r="32" fill="#283141"/>
<path d="M29.7505 8.62194L12.1945 18.4631C11.5271 18.8371 10.9728 19.375 10.5876 20.0229C10.2024 20.6707 9.99973 21.4056 10 22.1535L10.011 41.8575C10.0115 42.6043 10.2143 43.3379 10.599 43.9846C10.9838 44.6314 11.537 45.1686 12.2032 45.5424L29.7797 55.4034C30.4469 55.7772 31.2036 55.9741 31.9741 55.9741C32.7445 55.9741 33.5014 55.7772 34.1686 55.4034L51.7246 45.5652C52.3921 45.1912 52.9462 44.6532 53.3315 44.0054C53.7167 43.3576 53.9193 42.6227 53.9191 41.8747L53.9082 22.1708C53.9076 21.424 53.7047 20.6905 53.3199 20.0438C52.9352 19.3971 52.382 18.86 51.7159 18.4862L34.1395 8.62488C33.4723 8.25102 32.7154 8.0542 31.945 8.0542C31.1746 8.0542 30.4177 8.25102 29.7505 8.62488V8.62194Z" fill="white"/>
<path d="M23.9579 48.7446C23.985 48.6162 24.0441 48.4962 24.1304 48.3954C29.382 39.7469 34.6346 31.0988 39.8881 22.4511C39.9611 22.331 40.0288 22.2076 40.0908 22.1C40.0447 22.0218 39.9921 22.038 39.9475 22.038C37.703 22.0457 35.4586 22.0596 33.2126 22.057C33.1166 22.0554 33.0224 22.0823 32.9427 22.1342C32.8629 22.186 32.8015 22.2604 32.7665 22.3472C31.0735 25.0645 29.3782 27.7811 27.6809 30.4969C24.0852 36.2545 20.4892 42.0119 16.8927 47.7693C16.8609 47.8203 16.8276 47.8703 16.7992 47.9228C16.7357 48.0417 16.6634 48.0605 16.5344 47.9878C15.9763 47.6679 15.4122 47.3584 14.8193 47.0275L30.824 22.1154C30.7896 22.0141 30.7188 22.0394 30.6643 22.0376C29.8066 22.0126 28.9485 21.9766 28.0915 21.9693C26.8876 21.9347 25.6878 22.1223 24.556 22.5223C23.5253 22.8927 22.6494 23.5829 22.0642 24.4858C19.1399 28.9123 16.2046 33.332 13.2582 37.7449C13.212 37.8147 13.1629 37.8829 13.1152 37.952C12.9465 37.952 12.9714 37.8169 12.9559 37.7225C12.9409 37.5804 12.9374 37.4373 12.9453 37.2947C12.9453 32.4138 12.9627 27.5329 12.9298 22.6523C12.9034 22.2318 13.0075 21.8132 13.2289 21.4508C13.4503 21.0883 13.7787 20.7987 14.1716 20.6194C18.0388 18.4797 21.8811 16.296 25.7358 14.1346C27.4562 13.1699 29.182 12.2144 30.8899 11.2296C31.2111 11.0204 31.5892 10.9087 31.9761 10.9087C32.363 10.9087 32.7411 11.0204 33.0624 11.2296C36.2028 13.0183 39.3712 14.7654 42.5278 16.5287C44.9087 17.8593 47.2908 19.1875 49.674 20.5133C49.8447 20.6077 50.0107 20.7087 50.1821 20.8016C50.4607 20.9453 50.6912 21.1635 50.8462 21.4302C51.0012 21.697 51.0743 22.0013 51.0568 22.3071C51.0614 27.6165 51.0614 32.9258 51.0568 38.2351C51.068 38.3657 51.0533 38.4972 51.0137 38.6225C50.8245 38.7999 50.7561 38.6008 50.6873 38.5065C50.4035 38.1191 50.1488 37.7111 49.8851 37.3101C47.7733 34.1019 45.6545 30.8981 43.5286 27.6985C42.8142 26.617 42.0908 25.54 41.3841 24.4542C41.2191 24.2008 41.1892 24.1971 41.0243 24.4692C39.9578 26.2206 38.892 27.9723 37.8268 29.7243C37.7683 29.8217 37.7431 29.9346 37.7548 30.0467C37.7665 30.1589 37.8144 30.2645 37.8918 30.3486C38.7701 31.7239 39.6467 33.1002 40.5217 34.4775L45.008 41.5205C45.6134 42.4723 46.2198 43.4232 46.8272 44.3733C46.9399 44.5007 47.0034 44.6623 47.0065 44.8301C46.8851 45.0644 46.6319 45.1302 46.4212 45.2366C46.0753 45.479 45.6952 45.6716 45.2926 45.8084C45.0754 45.7559 44.9985 45.5657 44.8956 45.41C43.5067 43.3073 42.1355 41.194 40.7556 39.0863C39.3364 36.9198 37.924 34.7452 36.4987 32.5808C36.316 32.3032 36.2868 32.3014 36.115 32.5808C34.8751 34.6053 33.6522 36.6392 32.4093 38.6614C32.3458 38.7562 32.3145 38.868 32.32 38.9809C32.3255 39.0939 32.3675 39.2023 32.44 39.2908C34.1142 41.7952 35.7499 44.3216 37.4064 46.8384C37.8683 47.5398 38.3337 48.2386 38.7873 48.9451C38.8759 49.0824 38.997 49.2194 38.9168 49.4052C38.4819 49.7335 38.0127 50.0166 37.5168 50.2497C35.9696 51.1235 34.4216 51.996 32.8729 52.8672C32.6248 53.0227 32.3357 53.1053 32.0404 53.1053C31.7451 53.1053 31.4561 53.0227 31.208 52.8672C28.9267 51.5864 26.6414 50.3113 24.3518 49.042C24.1941 48.9812 24.0574 48.878 23.9579 48.7446Z" fill="#2D374B"/>
<path d="M50.949 38.6759C50.9524 38.5448 50.9591 38.4141 50.9591 38.2833C50.9591 32.986 50.9609 27.6889 50.9645 22.3921C50.9839 22.0708 50.9061 21.7511 50.7409 21.4721C50.5757 21.1931 50.3302 20.967 50.0345 20.8215C44.303 17.6327 38.5757 14.4366 32.8526 11.2334C32.5949 11.0706 32.2943 10.9837 31.9869 10.9829C31.6795 10.9821 31.3784 11.0676 31.1198 11.229C27.9415 13.0217 24.7592 14.8097 21.5729 16.5931C19.0164 18.0294 16.4602 19.466 13.904 20.903C13.6309 21.0405 13.4046 21.2515 13.2522 21.5108C13.0997 21.77 13.0277 22.0665 13.0447 22.3645C13.0578 27.4474 13.0652 32.5303 13.067 37.6132C13.067 37.7263 13.0197 37.8522 13.1215 37.9521C12.5161 38.9303 11.8509 39.8704 11.2134 40.8277C10.8941 41.307 10.5735 41.7855 10.2516 42.2631C10.2001 42.3395 10.1407 42.41 10.039 42.5462C10.0314 42.3861 10.0234 42.2976 10.0234 42.2095C10.0234 35.5065 10.0247 28.8035 10.0272 22.1005C10.0104 21.3566 10.205 20.6225 10.5897 19.9788C10.9744 19.3351 11.5343 18.8067 12.2081 18.4516C14.4306 17.1707 16.6826 15.9377 18.9198 14.6796C20.8075 13.6188 22.6887 12.5498 24.5752 11.4871C26.3346 10.4957 28.0762 9.47445 29.8654 8.53697C30.5507 8.16662 31.3259 7.98167 32.11 8.00143C32.8941 8.0212 33.6584 8.24496 34.3229 8.64934C35.7607 9.44103 37.1924 10.2474 38.6261 11.0472C39.9745 11.8005 41.323 12.5542 42.6712 13.3085C43.9137 14.0027 45.1566 14.6962 46.3999 15.389C47.6326 16.0762 48.8654 16.763 50.0984 17.4495C50.6402 17.7517 51.1816 18.0542 51.72 18.362C52.3144 18.6883 52.8255 19.1405 53.2152 19.6847C53.605 20.229 53.8634 20.8515 53.9713 21.506C53.9968 21.695 54.0046 21.8859 53.9948 22.0763C53.9948 28.672 53.9956 35.2679 53.9974 41.864C54.0009 42.4907 53.8616 43.1104 53.5894 43.6787C53.3171 44.247 52.9187 44.7499 52.4227 45.1512C52.1397 45.3607 51.8353 45.5417 51.5146 45.6914C49.6732 46.734 47.8292 47.7723 45.9826 48.8064C44.0204 49.908 42.0573 51.0078 40.0933 52.1057C38.2063 53.1667 36.3214 54.2316 34.4384 55.3004C33.9696 55.6065 33.4419 55.8177 32.8871 55.9214C31.9653 56.096 31.0102 55.9781 30.1629 55.585C29.2238 55.0963 28.3089 54.566 27.3831 54.0512C26.1398 53.3589 24.8971 52.6652 23.6551 51.9702C23.3042 51.7744 22.953 51.5797 22.6017 51.386C22.4726 51.3148 22.3845 51.2424 22.4852 51.079C22.9498 50.3237 23.4072 49.5639 23.8696 48.8071C23.8858 48.7796 23.9274 48.7667 23.9573 48.7465C24.3881 48.9418 24.8053 49.1645 25.2059 49.413C27.2347 50.5391 29.2604 51.6707 31.2828 52.8078C31.5165 52.9512 31.7879 53.026 32.0643 53.0231C32.3407 53.0203 32.6104 52.9399 32.8409 52.7917C34.7618 51.6978 36.6926 50.6196 38.6192 49.536C38.7146 49.4824 38.8122 49.4336 38.9091 49.3829C39.0907 49.1577 39.3334 48.9859 39.6098 48.8868C41.3503 47.9188 43.0779 46.9318 44.8179 45.9664C44.9632 45.886 45.0941 45.7619 45.2833 45.7828L46.9883 44.8244C47.0923 44.6129 47.3144 44.5446 47.5006 44.4403C48.3583 43.9596 49.2081 43.4657 50.0734 43.0005C50.3239 42.8726 50.5308 42.6772 50.6697 42.4379C50.8086 42.1986 50.8733 41.9255 50.8562 41.6513C50.8649 40.809 50.8562 39.9662 50.8604 39.1235C50.8303 38.9688 50.862 38.8088 50.949 38.6759Z" fill="#96BEDC"/>
<path d="M50.9393 38.6757C50.9439 39.7215 50.9677 40.7687 50.9435 41.8131C50.9502 42.0578 50.8869 42.2995 50.7608 42.5114C50.6346 42.7234 50.4505 42.8973 50.2288 43.0139C49.1437 43.6102 48.0781 44.2403 46.9832 44.8205C46.5477 44.0494 46.0448 43.315 45.5688 42.5658C43.0969 38.6774 40.6222 34.7911 38.1447 30.907C37.9964 30.6742 37.8605 30.4326 37.6947 30.2126C37.6408 30.1495 37.6113 30.0701 37.6113 29.9881C37.6113 29.9061 37.6408 29.8267 37.6947 29.7635C38.2861 28.8037 38.8677 27.8383 39.4531 26.8744L41.0777 24.1996C41.1066 24.136 41.1572 24.0841 41.2211 24.0527C41.5037 24.4754 41.7886 24.9017 42.0731 25.3284C43.7823 27.9111 45.4912 30.4938 47.1996 33.0765C48.3581 34.8288 49.5166 36.5812 50.6749 38.3338C50.7384 38.4639 50.8284 38.5801 50.9393 38.6757Z" fill="#28A0F0"/>
<path d="M45.2845 45.7792C44.5789 46.2286 43.8305 46.6109 43.1033 47.0277C41.7847 47.7801 40.4578 48.5186 39.1347 49.2625C39.059 49.304 38.9833 49.3429 38.9103 49.383C38.8935 49.2642 38.8409 49.1529 38.759 49.0631C37.5808 47.266 36.4024 45.4693 35.2239 43.6729C34.2556 42.1977 33.2844 40.724 32.3105 39.2517C32.2445 39.1753 32.2063 39.0801 32.2017 38.9805C32.197 38.881 32.2262 38.7827 32.2848 38.7009C33.5866 36.5731 34.883 34.442 36.174 32.3078C36.2046 32.2586 36.2292 32.2013 36.3053 32.1855C36.4112 32.2087 36.4369 32.3115 36.4872 32.3882C38.8331 35.9744 41.179 39.5608 43.5248 43.1474C44.0239 43.9108 44.5206 44.6761 45.0227 45.4381C45.0867 45.567 45.1752 45.683 45.2838 45.7799L45.2845 45.7792Z" fill="#28A0F0"/>
</svg>
