<svg xmlns="http://www.w3.org/2000/svg" xmlns:xlink="http://www.w3.org/1999/xlink" version="1.1" width="64" height="64" viewBox="0 0 1000 1000" xml:space="preserve">
<desc>Created with Fabric.js 3.5.0</desc>
<defs>
</defs>
<rect x="0" y="0" width="100%" height="100%" fill="rgba(0,0,0,0)"/>
<g transform="matrix(62.3492 0 0 62.3492 499.2936 499.2936)" id="52611">
<circle style="stroke: none; stroke-width: 1; stroke-dasharray: none; stroke-linecap: butt; stroke-dashoffset: 0; stroke-linejoin: miter; stroke-miterlimit: 4; is-custom-font: none; font-file-url: none; fill: rgb(0,0,0); fill-rule: nonzero; opacity: 1;" vector-effect="non-scaling-stroke" cx="0" cy="0" r="8"/>
</g>
<g transform="matrix(32.8327 0 0 32.8327 499.9999 499.9999)" id="407085">
<path style="stroke: none; stroke-width: 1; stroke-dasharray: none; stroke-linecap: butt; stroke-dashoffset: 0; stroke-linejoin: miter; stroke-miterlimit: 4; is-custom-font: none; font-file-url: none; fill: rgb(243,186,44); fill-rule: nonzero; opacity: 1;" vector-effect="non-scaling-stroke" transform=" translate(-12.15, -12)" d="M 14.4 19.9 v 2.7 L 12.1 24 l -2.3 -1.4 v -2.7 l 2.3 1.4 L 14.4 19.9 z M 1.9 10.6 L 4.1 12 v 4.6 L 8.1 19 v 2.7 L 1.9 18 V 10.6 z M 22.3 10.6 V 18 L 16 21.7 V 19 l 3.9 -2.3 V 12 L 22.3 10.6 z M 16 7 l 2.3 1.4 V 11 l -3.9 2.3 v 4.7 l -2.3 1.4 l -2.3 -1.4 v -4.7 L 5.8 11 V 8.3 L 8.1 7 l 3.9 2.3 L 16 7 z M 5.8 13 l 2.3 1.4 V 17 l -2.3 -1.4 V 13 z M 18.4 13 v 2.7 L 16.1 17 v -2.7 L 18.4 13 z M 4.1 4.6 L 6.5 6 L 4.1 7.4 v 2.7 L 1.9 8.7 V 6 L 4.1 4.6 z M 20 4.6 L 22.4 6 v 2.7 L 20 10.1 V 7.4 L 17.7 6 L 20 4.6 z M 12.1 4.6 L 14.4 6 l -2.3 1.4 L 9.8 6 L 12.1 4.6 z M 12.1 0 l 6.3 3.7 L 16.1 5 l -3.9 -2.3 L 8.1 5 L 5.9 3.7 L 12.1 0 z" stroke-linecap="round"/>
</g>
</svg>