<?xml version="1.0" standalone="no"?>
<!DOCTYPE svg PUBLIC "-//W3C//DTD SVG 20010904//EN"
 "http://www.w3.org/TR/2001/REC-SVG-20010904/DTD/svg10.dtd">
<svg version="1.0" xmlns="http://www.w3.org/2000/svg"
 width="224.000000pt" height="224.000000pt" viewBox="0 0 224.000000 224.000000"
 preserveAspectRatio="xMidYMid meet">

<g transform="translate(0.000000,224.000000) scale(0.100000,-0.100000)"
fill="#999999" stroke="none">
<path d="M990 2129 c-240 -28 -480 -159 -645 -352 -334 -391 -318 -978 36
-1351 173 -182 355 -275 615 -312 99 -14 130 -15 216 -5 262 32 449 120 624
295 174 175 263 363 295 624 21 178 -22 392 -116 569 -156 295 -450 495 -780
533 -102 11 -139 11 -245 -1z m210 -904 l0 -505 -22 -5 c-128 -29 -319 -33
-412 -9 -127 33 -202 100 -237 215 -57 189 20 380 185 456 54 25 72 28 163 28
l103 0 0 163 0 162 110 0 110 0 0 -505z m350 390 l0 -115 -110 0 -110 0 0 115
0 115 110 0 110 0 0 -115z m-2 -577 c-4 -401 -7 -420 -71 -514 -35 -53 -104
-110 -143 -120 -18 -5 -52 7 -121 40 l-97 47 50 29 c68 38 119 98 140 162 15
45 18 105 22 386 l4 332 109 0 110 0 -3 -362z"/>
<path d="M820 1212 c-55 -29 -82 -90 -78 -179 5 -115 56 -163 176 -163 l62 0
-2 178 -3 177 -60 3 c-43 2 -70 -3 -95 -16z"/>
</g>
</svg>
