<svg version="1.1" id="Layer_1" xmlns="http://www.w3.org/2000/svg" xmlns:xlink="http://www.w3.org/1999/xlink" x="0px" y="0px"
	 width="100%" viewBox="0 0 456 512" enable-background="new 0 0 456 512" xml:space="preserve">
<path fill="#C9177E" opacity="1.000000" stroke="none" 
	d="
M1.000004,368.000000 
	C1.000000,296.645782 1.000000,225.291550 1.302179,153.790192 
	C3.226516,149.106339 4.577333,144.449463 6.522838,140.055893 
	C11.880674,127.956207 19.049067,116.889656 28.802023,107.991776 
	C35.621483,101.770180 43.416748,96.508224 51.209511,91.490654 
	C61.433670,84.907570 72.124016,79.052620 82.540291,72.762665 
	C93.274277,66.280846 103.909561,59.635750 114.610947,53.099613 
	C117.553520,51.302368 120.669777,49.778458 123.544373,47.883430 
	C128.281998,44.760242 132.750412,41.213833 137.577225,38.243874 
	C147.975494,31.845774 158.513367,25.673473 169.024521,19.460194 
	C178.375473,13.932722 187.092575,7.202176 198.085083,4.808238 
	C200.231384,4.340820 202.037155,2.309817 204.000000,0.999999 
	C217.354233,1.000000 230.708450,1.000000 244.211731,1.305686 
	C245.177460,2.086296 245.938660,2.778970 246.819199,3.003414 
	C259.593414,6.259460 270.790131,12.719417 281.675751,19.884769 
	C285.431519,22.356968 289.412445,24.495886 293.346252,26.686943 
	C301.359436,31.150097 309.505768,35.382454 317.418549,40.015148 
	C324.988953,44.447399 332.199799,49.498756 339.808472,53.859600 
	C350.326599,59.887939 361.118164,65.437004 371.700653,71.355804 
	C380.323608,76.178635 388.912048,81.078842 397.334442,86.240685 
	C408.546722,93.112373 420.209778,99.470390 430.515350,107.536118 
	C440.436890,115.301277 448.265472,125.329391 452.166199,137.877563 
	C453.075684,140.803207 455.352356,143.303818 457.000000,146.000000 
	C457.000000,219.354233 457.000000,292.708466 456.698792,366.208710 
	C455.615448,367.926453 454.537354,369.419952 454.098053,371.082245 
	C450.638855,384.171753 443.618652,395.414703 434.319672,404.789948 
	C428.033325,411.127899 420.139282,416.082092 412.404877,420.722778 
	C401.180756,427.457336 389.411224,433.277191 377.948853,439.621826 
	C365.034760,446.769958 352.217224,454.092285 339.332062,461.292999 
	C327.307037,468.013031 315.212250,474.608826 303.216034,481.379517 
	C293.638733,486.784912 284.019012,492.138763 274.683624,497.942566 
	C265.390961,503.719788 255.681213,508.345123 245.094330,511.141022 
	C244.600372,511.271484 244.359009,512.358521 244.000000,513.000000 
	C231.312439,513.000000 218.624878,513.000000 205.791306,512.698730 
	C204.831207,511.920166 204.060654,511.336792 203.196228,510.982330 
	C195.558762,507.850616 187.522552,505.455414 180.336136,501.509521 
	C166.017563,493.647491 152.219467,484.843567 138.098877,476.613159 
	C127.397499,470.375763 116.507561,464.462738 105.742981,458.332611 
	C98.005249,453.926270 90.363380,449.351624 82.628426,444.940308 
	C74.344940,440.216217 65.895897,435.773468 57.718006,430.875824 
	C50.614758,426.621826 44.034622,421.451965 36.775494,417.511871 
	C28.642445,413.097443 22.840488,406.232727 17.447641,399.356873 
	C10.684832,390.734344 6.320070,380.487091 2.988724,369.933594 
	C2.743632,369.157135 1.682016,368.638489 1.000004,368.000000 
M421.145782,304.500000 
	C421.139954,258.841400 421.172089,213.182755 421.107819,167.524246 
	C421.085022,151.341156 414.061615,139.088318 399.991455,130.920105 
	C380.262360,119.466721 360.574219,107.942833 340.850922,96.479424 
	C311.188538,79.239296 281.501190,62.042171 251.843369,44.794186 
	C233.639008,34.207134 215.499313,34.069038 197.445389,45.071411 
	C185.209763,52.528004 173.041336,60.094887 160.846008,67.617577 
	C128.939713,87.298996 97.004250,106.933357 65.142395,126.686462 
	C48.076817,137.266464 37.125923,152.051208 37.032970,172.704086 
	C36.765232,232.191864 36.975006,291.681824 37.021915,351.170898 
	C37.023350,352.993225 37.035679,354.883087 37.485947,356.627075 
	C41.567329,372.434937 50.763378,384.526062 64.819817,392.671265 
	C88.863899,406.604004 113.065346,420.265198 137.205368,434.032257 
	C159.336395,446.653625 181.329193,459.527191 203.658752,471.787231 
	C218.618408,480.000885 233.925797,478.706818 248.543915,470.519714 
	C297.817169,442.923248 346.980499,415.130615 396.212982,387.461304 
	C412.431702,378.346161 420.886078,364.612274 421.094421,345.992676 
	C421.245483,332.496613 421.138519,318.997650 421.145782,304.500000 
z"/>
<path fill="#000000" opacity="1.000000" stroke="none" 
	d="
M457.000000,145.531342 
	C455.352356,143.303818 453.075684,140.803207 452.166199,137.877563 
	C448.265472,125.329391 440.436890,115.301277 430.515350,107.536118 
	C420.209778,99.470390 408.546722,93.112373 397.334442,86.240685 
	C388.912048,81.078842 380.323608,76.178635 371.700653,71.355804 
	C361.118164,65.437004 350.326599,59.887939 339.808472,53.859600 
	C332.199799,49.498756 324.988953,44.447399 317.418549,40.015148 
	C309.505768,35.382454 301.359436,31.150097 293.346252,26.686943 
	C289.412445,24.495886 285.431519,22.356968 281.675751,19.884769 
	C270.790131,12.719417 259.593414,6.259460 246.819199,3.003414 
	C245.938660,2.778970 245.177460,2.086296 244.680389,1.305686 
	C315.579987,1.000000 386.159973,1.000000 457.000000,1.000000 
	C457.000000,49.020580 457.000000,97.041634 457.000000,145.531342 
z"/>
<path fill="#000000" opacity="1.000000" stroke="none" 
	d="
M244.468658,513.000000 
	C244.359009,512.358521 244.600372,511.271484 245.094330,511.141022 
	C255.681213,508.345123 265.390961,503.719788 274.683624,497.942566 
	C284.019012,492.138763 293.638733,486.784912 303.216034,481.379517 
	C315.212250,474.608826 327.307037,468.013031 339.332062,461.292999 
	C352.217224,454.092285 365.034760,446.769958 377.948853,439.621826 
	C389.411224,433.277191 401.180756,427.457336 412.404877,420.722778 
	C420.139282,416.082092 428.033325,411.127899 434.319672,404.789948 
	C443.618652,395.414703 450.638855,384.171753 454.098053,371.082245 
	C454.537354,369.419952 455.615448,367.926453 456.698792,366.677368 
	C457.000000,415.607300 457.000000,464.214600 457.000000,513.000000 
	C386.312531,513.000000 315.624939,513.000000 244.468658,513.000000 
z"/>
<path fill="#000000" opacity="1.000000" stroke="none" 
	d="
M203.531342,0.999999 
	C202.037155,2.309817 200.231384,4.340820 198.085083,4.808238 
	C187.092575,7.202176 178.375473,13.932722 169.024521,19.460194 
	C158.513367,25.673473 147.975494,31.845774 137.577225,38.243874 
	C132.750412,41.213833 128.281998,44.760242 123.544373,47.883430 
	C120.669777,49.778458 117.553520,51.302368 114.610947,53.099613 
	C103.909561,59.635750 93.274277,66.280846 82.540291,72.762665 
	C72.124016,79.052620 61.433670,84.907570 51.209511,91.490654 
	C43.416748,96.508224 35.621483,101.770180 28.802023,107.991776 
	C19.049067,116.889656 11.880674,127.956207 6.522838,140.055893 
	C4.577333,144.449463 3.226516,149.106339 1.302179,153.321533 
	C1.000000,102.395836 1.000000,51.791676 1.000000,1.000000 
	C68.354111,1.000000 135.708405,1.000000 203.531342,0.999999 
z"/>
<path fill="#000000" opacity="1.000000" stroke="none" 
	d="
M1.000004,368.468658 
	C1.682016,368.638489 2.743632,369.157135 2.988724,369.933594 
	C6.320070,380.487091 10.684832,390.734344 17.447641,399.356873 
	C22.840488,406.232727 28.642445,413.097443 36.775494,417.511871 
	C44.034622,421.451965 50.614758,426.621826 57.718006,430.875824 
	C65.895897,435.773468 74.344940,440.216217 82.628426,444.940308 
	C90.363380,449.351624 98.005249,453.926270 105.742981,458.332611 
	C116.507561,464.462738 127.397499,470.375763 138.098877,476.613159 
	C152.219467,484.843567 166.017563,493.647491 180.336136,501.509521 
	C187.522552,505.455414 195.558762,507.850616 203.196228,510.982330 
	C204.060654,511.336792 204.831207,511.920166 205.322647,512.698730 
	C137.085327,513.000000 69.170662,513.000000 1.000000,513.000000 
	C1.000000,464.979401 1.000000,416.958374 1.000004,368.468658 
z"/>
<path fill="#FF4088" opacity="1.000000" stroke="none" 
	d="
M421.146179,305.000000 
	C421.138519,318.997650 421.245483,332.496613 421.094421,345.992676 
	C420.886078,364.612274 412.431702,378.346161 396.212982,387.461304 
	C346.980499,415.130615 297.817169,442.923248 248.543915,470.519714 
	C233.925797,478.706818 218.618408,480.000885 203.658752,471.787231 
	C181.329193,459.527191 159.336395,446.653625 137.205368,434.032257 
	C113.065346,420.265198 88.863899,406.604004 64.819817,392.671265 
	C50.763378,384.526062 41.567329,372.434937 37.485947,356.627075 
	C37.035679,354.883087 37.023350,352.993225 37.021915,351.170898 
	C36.975006,291.681824 36.765232,232.191864 37.032970,172.704086 
	C37.125923,152.051208 48.076817,137.266464 65.142395,126.686462 
	C97.004250,106.933357 128.939713,87.298996 160.846008,67.617577 
	C173.041336,60.094887 185.209763,52.528004 197.445389,45.071411 
	C215.499313,34.069038 233.639008,34.207134 251.843369,44.794186 
	C281.501190,62.042171 311.188538,79.239296 340.850922,96.479424 
	C360.574219,107.942833 380.262360,119.466721 399.991455,130.920105 
	C414.061615,139.088318 421.085022,151.341156 421.107819,167.524246 
	C421.172089,213.182755 421.139954,258.841400 421.146179,305.000000 
M275.742126,217.425751 
	C275.535461,217.753983 275.328796,218.082214 274.321075,218.635193 
	C243.539825,218.635193 212.758575,218.635193 181.354614,218.635193 
	C181.354614,185.290543 181.354614,152.404190 181.354614,119.359573 
	C161.875900,119.359573 143.025421,119.359573 124.307434,119.359573 
	C124.307434,210.636536 124.307434,301.493500 124.307434,392.822693 
	C126.350227,392.822693 127.985245,392.822693 129.620270,392.822693 
	C144.946106,392.822693 160.275574,392.636078 175.595596,392.934509 
	C180.289017,393.025970 181.417633,391.544983 181.396591,387.039032 
	C181.228485,351.057404 181.302994,315.074677 181.303177,279.092285 
	C181.303192,277.163879 181.303192,275.235474 181.303192,273.167419 
	C213.067108,273.167419 244.036484,273.167419 275.353851,273.477325 
	C275.589844,273.681213 275.844086,273.859009 276.326904,274.926788 
	C276.358490,312.397156 276.461151,349.867798 276.326843,387.337585 
	C276.311005,391.753815 277.567078,392.997681 281.962402,392.923889 
	C297.446167,392.663849 312.936951,392.831146 328.425079,392.810944 
	C330.195679,392.808655 331.966125,392.645813 333.794403,392.554535 
	C333.794403,301.156677 333.794403,210.304855 333.794403,119.304550 
	C314.624146,119.304550 295.765106,119.304550 276.420990,119.304550 
	C276.420990,121.635132 276.421021,123.605637 276.420990,125.576149 
	C276.420929,146.560059 276.451416,167.544022 276.407074,188.527832 
	C276.387024,198.011917 276.218048,207.495712 275.742126,217.425751 
z"/>
<path fill="#FFFFFF" opacity="1.000000" stroke="none" 
	d="
M275.005859,273.167419 
	C244.036484,273.167419 213.067108,273.167419 181.303192,273.167419 
	C181.303192,275.235474 181.303192,277.163879 181.303177,279.092285 
	C181.302994,315.074677 181.228485,351.057404 181.396591,387.039032 
	C181.417633,391.544983 180.289017,393.025970 175.595596,392.934509 
	C160.275574,392.636078 144.946106,392.822693 129.620270,392.822693 
	C127.985245,392.822693 126.350227,392.822693 124.307434,392.822693 
	C124.307434,301.493500 124.307434,210.636536 124.307434,119.359573 
	C143.025421,119.359573 161.875900,119.359573 181.354614,119.359573 
	C181.354614,152.404190 181.354614,185.290543 181.354614,218.635193 
	C212.758575,218.635193 243.539825,218.635193 275.037598,218.416687 
	C275.874939,217.791992 275.995758,217.385803 276.116608,216.979614 
	C276.218048,207.495712 276.387024,198.011917 276.407074,188.527832 
	C276.451416,167.544022 276.420929,146.560059 276.420990,125.576149 
	C276.421021,123.605637 276.420990,121.635132 276.420990,119.304550 
	C295.765106,119.304550 314.624146,119.304550 333.794403,119.304550 
	C333.794403,210.304855 333.794403,301.156677 333.794403,392.554535 
	C331.966125,392.645813 330.195679,392.808655 328.425079,392.810944 
	C312.936951,392.831146 297.446167,392.663849 281.962402,392.923889 
	C277.567078,392.997681 276.311005,391.753815 276.326843,387.337585 
	C276.461151,349.867798 276.358490,312.397156 276.190918,274.186401 
	C275.705261,273.353149 275.355560,273.260284 275.005859,273.167419 
z"/>
<path fill="#FF4B8F" opacity="1.000000" stroke="none" 
	d="
M275.929352,217.202682 
	C275.995758,217.385803 275.874939,217.791992 275.438110,218.304321 
	C275.328796,218.082214 275.535461,217.753983 275.929352,217.202682 
z"/>
<path fill="#FF4B8F" opacity="1.000000" stroke="none" 
	d="
M275.179871,273.322388 
	C275.355560,273.260284 275.705261,273.353149 276.085754,273.728363 
	C275.844086,273.859009 275.589844,273.681213 275.179871,273.322388 
z"/>
</svg>