<?xml version="1.0" standalone="no"?>
<!DOCTYPE svg PUBLIC "-//W3C//DTD SVG 20010904//EN"
 "http://www.w3.org/TR/2001/REC-SVG-20010904/DTD/svg10.dtd">
<svg version="1.0" xmlns="http://www.w3.org/2000/svg"
 width="4255.000000pt" height="4255.000000pt" viewBox="0 0 4255.000000 4255.000000"
 preserveAspectRatio="xMidYMid meet">

<g transform="translate(0.000000,4255.000000) scale(0.100000,-0.100000)"
fill="#888888" stroke="none">
<path d="M10 21270 l0 -21270 21270 0 21270 0 0 21270 0 21270 -21270 0
-21270 0 0 -21270z m22249 13011 c284 -55 523 -183 731 -391 273 -272 414
-610 413 -995 0 -170 -16 -283 -64 -432 -255 -801 -1151 -1203 -1924 -862 -49
22 -115 55 -145 74 l-55 34 -792 -792 c-436 -435 -793 -799 -793 -807 -1 -8
83 -749 187 -1646 l187 -1630 75 13 c310 54 797 81 1147 64 488 -23 579 -43
668 -142 53 -59 76 -121 76 -204 0 -124 -63 -223 -175 -276 -72 -35 -101 -36
-327 -12 -233 24 -743 23 -972 -1 -642 -67 -1195 -222 -1751 -490 -385 -186
-738 -415 -1090 -707 -138 -114 -510 -488 -631 -634 -615 -741 -1002 -1598
-1144 -2530 -67 -442 -75 -940 -23 -1365 25 -202 23 -284 -6 -344 -29 -60 -85
-117 -143 -148 -36 -19 -58 -23 -138 -23 -110 0 -147 15 -217 86 -59 60 -80
110 -97 240 -70 518 -65 1117 14 1631 10 68 18 123 17 124 -5 3 -3245 374
-3267 374 -20 0 -173 -148 -723 -698 l-698 -698 40 -70 c158 -275 217 -636
156 -953 -96 -499 -460 -917 -935 -1075 -179 -59 -253 -71 -455 -71 -252 0
-395 32 -611 135 -403 191 -685 555 -781 1010 -28 133 -25 412 5 549 65 290
177 495 387 708 192 194 406 317 655 377 349 85 682 45 1000 -120 l104 -54
776 774 c811 811 805 806 905 821 25 4 689 -68 1785 -194 960 -110 1757 -203
1771 -205 25 -5 27 -2 59 107 18 62 59 186 92 277 257 706 644 1345 1155 1906
l91 101 -548 548 -549 549 -69 -46 c-232 -155 -492 -231 -782 -231 -391 0
-745 152 -1017 436 -191 200 -314 438 -370 714 -25 122 -25 404 0 523 109 525
479 941 977 1098 139 44 263 62 425 62 172 0 291 -19 446 -70 212 -70 382
-174 540 -330 214 -211 345 -456 406 -755 24 -124 24 -386 0 -509 -25 -124
-61 -236 -110 -339 l-41 -88 570 -569 569 -570 100 82 c546 445 1169 785 1845
1008 l205 68 -3 34 c-2 18 -93 814 -203 1768 -131 1138 -198 1749 -193 1775
17 104 9 95 921 1007 l868 867 -50 98 c-57 109 -104 244 -132 373 -26 121 -25
430 1 549 29 133 62 226 126 356 124 251 333 467 590 612 131 74 347 142 515
162 109 13 306 5 424 -18z m5381 -5336 c563 -125 969 -534 1092 -1098 31 -145
32 -427 0 -569 -97 -440 -359 -780 -752 -978 -192 -97 -399 -143 -635 -143
-226 0 -404 39 -605 134 l-105 50 -665 -666 c-366 -366 -665 -670 -665 -675 0
-5 40 -57 90 -115 481 -569 841 -1206 1075 -1905 143 -423 232 -847 280 -1330
18 -176 24 -676 11 -880 -12 -189 -49 -508 -74 -638 -14 -71 -14 -72 7 -77 12
-2 776 -91 1699 -197 l1678 -192 802 800 802 799 -54 90 c-143 238 -210 504
-198 789 15 368 151 680 407 936 197 198 426 324 703 385 114 26 401 31 529
10 580 -96 1026 -525 1150 -1108 28 -136 31 -396 5 -537 -81 -438 -361 -811
-756 -1009 -92 -47 -281 -107 -395 -126 -116 -19 -328 -22 -442 -5 -152 22
-308 72 -448 142 -46 23 -61 27 -64 17 -2 -8 -394 -405 -871 -882 -915 -917
-907 -909 -1011 -923 -29 -4 -673 67 -1835 200 -984 113 -1806 209 -1826 212
l-37 5 -42 -128 c-229 -690 -564 -1309 -997 -1840 -45 -57 -83 -106 -83 -111
0 -4 261 -268 579 -586 l579 -579 108 56 c120 61 244 105 374 133 120 26 439
27 559 1 411 -89 734 -318 940 -668 217 -369 251 -834 91 -1242 -122 -312
-363 -577 -664 -729 -121 -61 -271 -112 -396 -134 -143 -26 -374 -24 -518 4
-567 112 -992 533 -1114 1105 -28 135 -31 397 -4 532 33 169 90 328 159 445
l35 57 -578 578 -578 578 -129 -114 c-597 -531 -1257 -916 -1999 -1166 l-195
-65 6 -42 c3 -22 98 -842 211 -1821 127 -1105 203 -1798 200 -1827 -12 -110 5
-92 -818 -915 l-772 -772 57 -108 c161 -311 204 -662 122 -1001 -128 -530
-541 -926 -1088 -1044 -145 -31 -417 -31 -564 0 -562 120 -979 539 -1100 1102
-26 122 -26 449 1 570 61 279 187 512 386 710 199 200 443 329 727 387 135 27
423 24 563 -6 127 -27 267 -78 376 -136 l81 -43 703 703 703 704 -193 1688
c-106 928 -197 1692 -201 1697 -4 4 -84 -3 -181 -18 -541 -81 -1058 -89 -1588
-25 -1126 135 -2224 616 -3057 1340 -56 49 -106 89 -110 89 -5 0 -277 -269
-606 -598 l-599 -599 31 -61 c273 -541 183 -1187 -225 -1621 -194 -206 -432
-342 -718 -409 -100 -23 -131 -26 -306 -26 -165 0 -211 3 -297 22 -277 60
-506 185 -703 382 -165 164 -268 330 -340 549 -59 176 -74 289 -67 500 4 152
9 191 35 291 38 148 89 272 156 385 204 341 531 571 929 657 146 31 418 31
564 0 171 -37 338 -103 469 -187 l51 -33 597 597 597 597 -22 20 c-39 34 -220
255 -319 389 -269 360 -509 779 -681 1185 -47 110 -54 135 -57 207 -3 71 -1
89 20 135 33 72 66 108 130 143 48 27 61 30 148 30 88 0 99 -2 150 -31 72 -41
105 -86 164 -224 349 -824 908 -1546 1621 -2095 765 -589 1646 -936 2660
-1047 191 -21 819 -18 1020 5 1299 148 2424 718 3293 1667 686 749 1145 1718
1291 2730 41 282 46 368 46 760 -1 419 -8 518 -66 860 -299 1784 -1540 3301
-3234 3955 -150 58 -213 125 -236 251 -11 59 1 145 27 196 49 95 155 158 267
158 77 0 132 -17 355 -111 521 -221 1052 -551 1492 -928 52 -45 98 -80 102
-79 4 2 304 299 666 660 l658 658 -24 37 c-90 145 -164 334 -198 508 -27 135
-25 405 4 542 126 584 563 1005 1152 1109 104 18 419 12 520 -11z m-4330
-5631 c550 -80 1055 -367 1403 -799 214 -266 370 -586 440 -907 41 -185 51
-283 51 -483 0 -213 -16 -346 -65 -539 -156 -620 -591 -1154 -1173 -1441 -841
-414 -1857 -244 -2524 423 -320 321 -544 747 -615 1172 l-13 75 -736 3 -737 2
-3 -262 c-3 -252 -4 -265 -26 -306 -30 -56 -91 -115 -150 -144 -67 -33 -187
-32 -254 1 -63 30 -125 94 -154 156 -23 48 -24 59 -24 303 l0 252 -664 0 -665
0 -3 -387 c-3 -372 -4 -390 -24 -433 -33 -68 -88 -126 -152 -157 -47 -23 -70
-28 -132 -28 -124 1 -219 59 -278 170 l-27 50 -3 969 c-2 842 0 976 13 1022
19 65 89 145 159 182 44 23 63 27 136 27 69 0 93 -4 128 -23 66 -35 119 -88
149 -150 l28 -57 3 -282 3 -283 180 0 179 0 0 253 c0 193 4 266 15 311 46 177
217 273 395 220 42 -12 67 -29 115 -77 93 -93 95 -104 95 -434 l0 -273 175 0
175 0 0 243 c0 280 5 307 75 385 61 67 122 96 217 100 65 3 85 0 130 -20 75
-35 122 -79 158 -150 l30 -61 0 -249 0 -248 736 2 737 3 24 120 c50 250 172
547 310 760 383 586 1017 959 1713 1009 96 7 341 -4 450 -20z"/>
<path d="M21860 33679 c-391 -69 -661 -392 -661 -789 0 -349 206 -637 539
-753 76 -26 104 -31 222 -35 116 -4 149 -1 220 17 154 39 280 112 385 222 74
78 94 106 139 195 166 331 79 741 -207 974 -73 60 -215 131 -307 154 -80 21
-256 28 -330 15z"/>
<path d="M14663 28121 c-92 -23 -221 -85 -301 -146 -118 -89 -218 -240 -264
-401 -30 -103 -32 -313 -5 -414 23 -87 96 -232 151 -302 98 -123 260 -227 421
-269 112 -30 289 -30 400 0 339 89 563 368 582 721 20 381 -227 715 -601 810
-102 26 -279 26 -383 1z m321 -276 c98 -26 166 -65 242 -140 113 -113 160
-237 151 -400 -8 -146 -59 -259 -164 -359 -197 -189 -535 -182 -732 15 -101
100 -151 225 -151 374 0 152 47 263 154 371 105 105 218 152 366 153 42 1 102
-6 134 -14z"/>
<path d="M9250 21115 c-317 -64 -561 -308 -625 -624 -21 -100 -16 -272 9 -366
39 -146 149 -314 264 -407 74 -59 187 -120 277 -148 107 -34 292 -39 407 -11
165 39 287 110 403 233 80 85 127 159 162 256 87 239 65 483 -65 707 -45 77
-180 212 -257 257 -179 103 -387 141 -575 103z"/>
<path d="M27165 28341 c-289 -74 -505 -282 -587 -568 -30 -102 -32 -303 -5
-403 109 -405 506 -666 906 -596 173 30 332 116 454 245 82 87 137 180 179
301 30 89 32 104 33 235 0 104 -5 157 -18 205 -42 155 -144 314 -266 416 -80
67 -240 147 -338 168 -97 21 -267 20 -358 -3z"/>
<path d="M32725 22879 c-403 -61 -695 -394 -695 -794 0 -366 245 -680 605
-776 111 -30 279 -30 390 0 229 61 419 216 520 426 65 135 80 197 79 350 0
154 -15 220 -80 350 -129 263 -381 430 -674 448 -47 3 -112 1 -145 -4z"/>
<path d="M27140 15800 c-288 -77 -502 -290 -586 -580 -28 -99 -26 -299 4 -403
141 -491 679 -735 1126 -511 91 46 117 65 200 144 121 115 209 276 237 434 6
39 9 116 7 180 -4 91 -11 128 -37 206 -84 248 -269 433 -516 516 -68 22 -101
27 -220 30 -117 3 -152 1 -215 -16z m361 -280 c241 -82 396 -331 360 -579 -38
-258 -265 -454 -526 -454 -148 0 -274 54 -379 163 -291 301 -142 790 269 886
77 18 195 11 276 -16z"/>
<path d="M14561 15699 c-248 -44 -473 -215 -585 -445 -122 -248 -102 -551 50
-780 145 -218 373 -349 630 -361 386 -19 722 232 820 612 28 111 24 285 -10
400 -81 271 -289 479 -556 555 -86 25 -264 35 -349 19z"/>
<path d="M20151 10229 c-123 -24 -263 -91 -364 -174 -183 -151 -287 -370 -288
-605 -1 -132 20 -227 75 -345 97 -205 267 -354 486 -427 87 -29 107 -31 230
-32 113 -1 148 3 214 22 261 76 464 269 552 525 152 444 -135 935 -602 1032
-79 16 -231 18 -303 4z"/>
<path d="M22843 22709 c-538 -52 -1018 -382 -1258 -864 -130 -262 -185 -516
-172 -791 37 -731 553 -1333 1272 -1484 131 -27 357 -37 495 -21 1085 127
1722 1280 1251 2266 -123 258 -309 472 -546 631 -315 209 -670 299 -1042 263z
m429 -532 c378 -99 677 -398 774 -775 32 -121 42 -311 24 -433 -66 -455 -414
-818 -868 -905 -99 -19 -309 -18 -412 2 -379 71 -693 347 -814 714 -46 140
-60 244 -53 399 22 508 382 921 884 1016 121 23 341 14 465 -18z"/>
<path d="M22858 21577 c-132 -46 -230 -135 -291 -266 -57 -120 -48 -293 21
-411 162 -281 536 -325 757 -89 148 158 166 400 42 580 -51 74 -143 149 -224
179 -90 34 -219 37 -305 7z"/>
</g>
</svg>
