<?xml version="1.0" standalone="no"?>
<!DOCTYPE svg PUBLIC "-//W3C//DTD SVG 20010904//EN"
 "http://www.w3.org/TR/2001/REC-SVG-20010904/DTD/svg10.dtd">
<svg version="1.0" xmlns="http://www.w3.org/2000/svg"
 width="400.000000pt" height="400.000000pt" viewBox="0 0 400.000000 400.000000"
 preserveAspectRatio="xMidYMid meet">

<g transform="translate(0.000000,400.000000) scale(0.100000,-0.100000)"
fill="#999" stroke="none">
<path d="M0 2000 l0 -2000 2000 0 2000 0 0 2000 0 2000 -2000 0 -2000 0 0
-2000z m2220 1445 c4 -2 -8 -93 -25 -202 -18 -109 -34 -217 -38 -241 l-5 -42
38 -6 c20 -3 42 -9 48 -13 8 -5 -8 -80 -51 -241 l-63 -235 -45 3 c-88 6 -79
-48 -79 504 l0 491 107 -7 c58 -4 109 -9 113 -11z m-436 -97 c41 -241 56 -339
56 -367 0 -28 -3 -31 -40 -37 -22 -4 -42 -10 -45 -14 -2 -4 23 -106 55 -228
33 -121 60 -228 60 -236 0 -9 -7 -16 -15 -16 -9 0 -33 -9 -54 -20 l-39 -19
-113 195 c-148 255 -128 234 -177 201 l-41 -26 -107 147 c-59 81 -124 169
-145 197 -28 37 -35 53 -27 62 13 16 178 117 182 112 2 -2 52 -98 111 -214 59
-115 109 -211 111 -213 1 -2 33 9 72 23 l69 28 -27 86 c-15 47 -49 151 -75
229 -25 79 -44 146 -41 149 8 9 167 51 192 52 20 1 23 -8 38 -91z m824 -18
c28 -12 52 -25 52 -28 0 -4 -218 -431 -224 -438 -1 -2 -128 48 -135 53 -3 2
136 447 146 465 4 7 79 -17 161 -52z m335 -215 c41 -35 78 -68 81 -73 2 -4
-151 -164 -342 -355 l-348 -348 -47 37 c-26 20 -47 38 -47 40 0 4 239 417 244
422 2 2 23 -9 45 -24 23 -15 43 -25 44 -23 2 2 66 91 142 197 77 105 142 192
146 192 3 0 40 -29 82 -65z m-1316 -744 c36 -37 35 -40 -14 -99 l-28 -33 -210
121 c-116 67 -211 123 -213 125 -2 2 9 22 24 45 23 35 25 43 13 50 -7 5 -43
30 -79 57 -36 26 -114 84 -175 127 -60 44 -114 83 -119 87 -10 9 16 46 89 127
l48 53 315 -313 c174 -172 331 -328 349 -347z m1617 393 c32 -52 57 -96 55
-98 -2 -2 -100 -52 -217 -112 -156 -80 -211 -113 -208 -124 2 -8 15 -40 28
-71 l24 -56 228 74 c181 59 231 72 237 61 12 -19 54 -197 48 -203 -7 -6 -431
-75 -464 -75 -21 0 -26 6 -31 40 -4 22 -10 42 -14 45 -4 2 -106 -23 -228 -55
-121 -33 -228 -60 -236 -60 -9 0 -16 7 -16 15 0 9 -9 33 -20 55 l-20 39 195
111 c107 62 202 118 211 124 15 11 14 16 -10 54 l-25 41 197 145 c108 80 199
145 202 146 3 0 32 -43 64 -96z m-2323 -216 l218 -111 -16 -36 c-8 -20 -20
-51 -26 -68 -6 -18 -14 -33 -18 -33 -4 0 -104 32 -222 70 -118 39 -219 70
-225 70 -23 0 -20 21 14 106 46 115 45 114 51 114 3 0 104 -50 224 -112z m399
-367 l215 -57 -3 -45 c-6 -88 48 -79 -504 -79 l-491 0 7 107 c4 59 9 110 11
113 3 5 157 -16 452 -63 29 -5 32 -3 38 26 13 63 15 67 38 62 12 -3 119 -32
237 -64z m2136 -288 c-4 -59 -9 -110 -11 -113 -3 -5 -158 17 -452 64 -32 5
-33 3 -39 -33 -3 -21 -9 -43 -13 -49 -5 -8 -78 7 -242 51 l-234 63 3 45 c6 88
-48 79 504 79 l491 0 -7 -107z m-1906 -38 c0 -9 9 -33 20 -55 l20 -39 -195
-111 c-107 -62 -202 -118 -211 -124 -15 -11 -14 -16 10 -54 l26 -41 -201 -147
c-158 -115 -203 -144 -210 -133 -38 56 -110 181 -108 183 2 2 100 52 217 112
156 80 211 113 208 124 -2 8 -15 40 -28 71 l-24 56 -224 -73 c-124 -41 -228
-74 -231 -74 -14 0 -69 204 -58 215 7 6 431 75 464 75 21 0 26 -6 31 -40 4
-22 10 -42 14 -45 4 -2 103 22 221 54 234 65 259 69 259 46z m1076 -216 c115
-66 210 -122 212 -124 2 -2 -9 -22 -24 -44 -15 -23 -25 -43 -23 -45 2 -1 90
-65 194 -140 105 -76 192 -140 194 -142 5 -5 -34 -56 -94 -122 l-48 -53 -336
333 c-184 183 -340 340 -347 348 -10 13 -6 24 23 63 19 26 36 47 38 47 1 0 96
-54 211 -121z m517 -9 c118 -38 219 -70 225 -70 6 0 13 -4 16 -9 5 -8 -54
-170 -73 -200 -7 -11 -55 10 -229 99 l-221 113 16 36 c8 20 20 51 26 69 6 17
14 32 18 32 4 0 104 -31 222 -70z m-1415 -18 l34 -28 -121 -209 c-67 -115
-123 -211 -125 -213 -2 -2 -23 9 -45 24 -23 15 -43 25 -45 23 -1 -2 -59 -83
-129 -179 -69 -96 -132 -184 -140 -195 -14 -19 -15 -19 -48 7 -19 14 -58 47
-87 73 l-54 48 348 348 c275 275 351 346 363 339 9 -5 31 -22 49 -38z m628
-228 c64 -110 120 -203 124 -208 6 -5 25 2 49 17 l40 27 118 -163 c64 -89 130
-177 145 -196 21 -26 25 -38 16 -48 -13 -16 -178 -117 -182 -112 -2 2 -52 98
-111 214 -59 116 -110 212 -112 214 -1 3 -24 -5 -51 -16 -26 -12 -57 -25 -69
-29 -22 -9 -21 -11 52 -234 41 -124 73 -230 71 -236 -4 -10 -171 -54 -202 -54
-7 0 -18 40 -28 93 -41 240 -56 338 -56 366 0 28 3 31 40 37 22 4 42 10 45 14
2 4 -23 106 -55 228 -33 121 -60 228 -60 236 0 9 8 16 18 16 9 1 33 9 52 20
19 10 36 17 38 15 2 -1 55 -92 118 -201z m-378 140 l22 -4 0 -492 0 -491 -107
7 c-58 4 -109 9 -113 11 -4 2 8 93 25 202 18 109 34 217 38 241 l5 42 -38 6
c-20 3 -42 9 -48 13 -8 5 7 77 48 231 33 124 62 230 65 237 4 11 38 10 103 -3z
m-310 -427 c40 -13 43 5 -47 -272 -59 -181 -71 -210 -87 -207 -24 5 -164 59
-183 71 -11 7 10 55 100 229 l114 220 35 -15 c19 -8 50 -20 68 -26z" />
</g>
</svg>
