<?xml version="1.0" encoding="UTF-8"?>
<!DOCTYPE svg PUBLIC "-//W3C//DTD SVG 1.1//EN" "http://www.w3.org/Graphics/SVG/1.1/DTD/svg11.dtd">
<svg xmlns="http://www.w3.org/2000/svg" version="1.1" width="225px" height="225px" style="shape-rendering:geometricPrecision; text-rendering:geometricPrecision; image-rendering:optimizeQuality; fill-rule:evenodd; clip-rule:evenodd" xmlns:xlink="http://www.w3.org/1999/xlink">
<g><path style="opacity:0" d="M -0.5,-0.5 C 34.8333,-0.5 70.1667,-0.5 105.5,-0.5C 64.7918,3.60832 33.9585,23.275 13,58.5C 5.20651,73.359 0.706513,89.0257 -0.5,105.5C -0.5,70.1667 -0.5,34.8333 -0.5,-0.5 Z"/></g>
<g><path style="opacity:1" fill="#2c39cf" d="M 105.5,-0.5 C 109.833,-0.5 114.167,-0.5 118.5,-0.5C 170.639,5.34802 204.805,33.348 221,83.5C 221.872,89.3633 223.039,95.03 224.5,100.5C 224.5,106.167 224.5,111.833 224.5,117.5C 219.428,167.407 193.428,201.24 146.5,219C 137.49,221.497 128.49,223.33 119.5,224.5C 113.167,224.5 106.833,224.5 100.5,224.5C 53.5324,217.091 21.699,191.091 5,146.5C 2.3938,137.171 0.560471,127.838 -0.5,118.5C -0.5,114.167 -0.5,109.833 -0.5,105.5C 0.706513,89.0257 5.20651,73.359 13,58.5C 33.9585,23.275 64.7918,3.60832 105.5,-0.5 Z"/></g>
<g><path style="opacity:0" d="M 118.5,-0.5 C 153.833,-0.5 189.167,-0.5 224.5,-0.5C 224.5,33.1667 224.5,66.8333 224.5,100.5C 223.039,95.03 221.872,89.3633 221,83.5C 204.805,33.348 170.639,5.34802 118.5,-0.5 Z"/></g>
<g><path style="opacity:1" fill="#f7f7fc" d="M 74.5,61.5 C 76.371,61.8588 77.871,62.8588 79,64.5C 90,88.8333 101,113.167 112,137.5C 123.721,113.002 135.054,88.3357 146,63.5C 147.388,62.4464 148.888,62.2797 150.5,63C 162.375,87.2773 173.875,111.777 185,136.5C 195.331,139.491 198.331,145.824 194,155.5C 187.677,161.103 181.677,160.769 176,154.5C 173.237,148.415 174.404,143.248 179.5,139C 169.205,116.908 159.038,94.7417 149,72.5C 139.007,93.7986 129.007,115.132 119,136.5C 118.073,139.596 119.073,141.93 122,143.5C 124.689,151.074 122.189,156.241 114.5,159C 106.885,159.564 102.219,156.064 100.5,148.5C 101.049,144.445 103.049,141.278 106.5,139C 96.1435,116.935 85.9768,94.7684 76,72.5C 66.0073,93.7986 56.0073,115.132 46,136.5C 45.0733,139.596 46.0733,141.93 49,143.5C 50.5262,155.643 45.3595,160.477 33.5,158C 25.6211,151.628 25.6211,145.294 33.5,139C 35.5,138.167 37.5,137.333 39.5,136.5C 50.9237,111.323 62.5904,86.3227 74.5,61.5 Z"/></g>
<g><path style="opacity:0" d="M -0.5,118.5 C 0.560471,127.838 2.3938,137.171 5,146.5C 21.699,191.091 53.5324,217.091 100.5,224.5C 66.8333,224.5 33.1667,224.5 -0.5,224.5C -0.5,189.167 -0.5,153.833 -0.5,118.5 Z"/></g>
<g><path style="opacity:0" d="M 224.5,117.5 C 224.5,153.167 224.5,188.833 224.5,224.5C 189.5,224.5 154.5,224.5 119.5,224.5C 128.49,223.33 137.49,221.497 146.5,219C 193.428,201.24 219.428,167.407 224.5,117.5 Z"/></g>
</svg>
