<svg width="31" height="20" viewBox="0 0 31 20" fill="none" xmlns="http://www.w3.org/2000/svg">
<path d="M11.2743 5.9655V4.16249C11.4524 4.15136 11.6305 4.14023 11.8086 4.14023C16.7501 3.98442 19.9889 8.39176 19.9889 8.39176C19.9889 8.39176 16.4942 13.2443 12.7435 13.2443C12.2426 13.2443 11.7529 13.1664 11.2855 13.0106V7.53478C13.2109 7.7685 13.6004 8.61436 14.7468 10.5398L17.3178 8.38064C17.3178 8.38064 15.4368 5.92098 12.276 5.92098C11.9421 5.90985 11.6082 5.93211 11.2743 5.9655ZM11.2743 0V2.69338L11.8086 2.65999C18.6756 2.42627 23.1608 8.2916 23.1608 8.2916C23.1608 8.2916 18.0189 14.5465 12.6656 14.5465C12.1981 14.5465 11.7418 14.5019 11.2855 14.424V16.0935C11.6639 16.138 12.0534 16.1714 12.4318 16.1714C17.4179 16.1714 21.0239 13.6227 24.5186 10.6177C25.0974 11.0851 27.468 12.2092 27.9577 12.6989C24.6411 15.4814 16.906 17.7184 12.5209 17.7184C12.0979 17.7184 11.6973 17.6962 11.2966 17.6516V20H30.2393V0L11.2743 0ZM11.2743 13.0106V14.4352C6.66667 13.6116 5.38676 8.81469 5.38676 8.81469C5.38676 8.81469 7.60156 6.36617 11.2743 5.9655V7.52365H11.2632C9.33779 7.28993 7.82415 9.09293 7.82415 9.09293C7.82415 9.09293 8.68114 12.1313 11.2743 13.0106ZM3.09405 8.61436C3.09405 8.61436 5.82081 4.58542 11.2855 4.16249V2.69338C5.23094 3.18308 0 8.30273 0 8.30273C0 8.30273 2.96049 16.8726 11.2743 17.6516V16.0935C5.17529 15.3367 3.09405 8.61436 3.09405 8.61436Z" fill="#76B900"/>
</svg>
