<svg width="120" height="104" viewBox="0 0 120 104" fill="none" xmlns="http://www.w3.org/2000/svg">
<path fill-rule="evenodd" clip-rule="evenodd" d="M1.23756 97.7878C-0.277345 100.376 1.58439 103.633 4.58375 103.641L27.7608 103.703L89.081 59.4236L53.3828 103.805L60.0157 103.814L83.0003 103.882L94.1285 68.901L98.3124 103.939L115.448 103.983C118.447 103.99 120.326 100.743 118.825 98.1469L91.2766 50.5019L63.6916 2.78923C62.1986 0.206799 58.4739 0.197287 56.9677 2.77205L48.0733 17.9764L76.737 39.1315L40.3345 31.1244L29.0836 50.3114L25.411 56.6244L82.5184 48.1911L12.3302 78.8326L1.23756 97.7878ZM99.2803 44.0329C100.786 44.3661 101.67 45.9324 101.177 47.3937L96.865 60.1658L85.8139 41.0534L99.2803 44.0329Z" fill="url(#paint0_linear_5054_869)"/>
<path fill-rule="evenodd" clip-rule="evenodd" d="M1.23756 97.7878C-0.277345 100.376 1.58439 103.633 4.58375 103.641L27.7608 103.703L89.081 59.4236L53.3828 103.805L60.0157 103.814L83.0003 103.882L94.1285 68.901L98.3124 103.939L115.448 103.983C118.447 103.99 120.326 100.743 118.825 98.1469L91.2766 50.5019L63.6916 2.78923C62.1986 0.206799 58.4739 0.197287 56.9677 2.77205L48.0733 17.9764L76.737 39.1315L40.3345 31.1244L29.0836 50.3114L25.411 56.6244L82.5184 48.1911L12.3302 78.8326L1.23756 97.7878ZM99.2803 44.0329C100.786 44.3661 101.67 45.9324 101.177 47.3937L96.865 60.1658L85.8139 41.0534L99.2803 44.0329Z" fill="white" fill-opacity="0.5"/>
<defs>
<linearGradient id="paint0_linear_5054_869" x1="0.699219" y1="28.7794" x2="103.439" y2="121.597" gradientUnits="userSpaceOnUse">
<stop stop-color="#BEFFF4"/>
<stop offset="0.536458" stop-color="#E5E6F6"/>
<stop offset="1" stop-color="#C6B4FF"/>
</linearGradient>
</defs>
</svg>