<svg version="1.1" id="Layer_1" xmlns="http://www.w3.org/2000/svg" xmlns:xlink="http://www.w3.org/1999/xlink" x="0px" y="0px"
	 width="100%" viewBox="0 0 280 280" enable-background="new 0 0 280 280" xml:space="preserve">
<path fill="#F03E2F" opacity="1.000000" stroke="none" 
	d="
M184.000000,281.000000 
	C122.666672,281.000000 61.833347,281.000000 1.000016,281.000000 
	C1.000011,187.666687 1.000011,94.333366 1.000005,1.000041 
	C94.333305,1.000028 187.666611,1.000028 280.999939,1.000014 
	C280.999939,94.333290 280.999939,187.666580 280.999969,280.999939 
	C248.833328,281.000000 216.666672,281.000000 184.000000,281.000000 
M107.038612,107.411507 
	C107.781471,100.952332 109.994370,95.015297 114.447235,90.277145 
	C128.786743,75.018936 163.053345,77.044464 171.286774,97.131454 
	C172.417252,99.889526 174.371933,100.947365 177.505157,100.868835 
	C186.331238,100.647629 195.166550,100.809944 203.998062,100.776077 
	C205.583847,100.770004 207.168808,100.549377 209.263855,100.388733 
	C205.674377,84.045280 197.910660,71.110634 184.208908,62.383518 
	C165.000412,50.148972 143.807343,48.691708 122.097862,52.830238 
	C107.454109,55.621822 95.037384,62.727539 85.709793,75.652832 
	C83.204727,81.559860 80.017166,87.278488 78.324585,93.409805 
	C73.548279,110.711838 80.506973,131.582504 96.874802,141.554825 
	C108.363373,148.554382 121.151466,151.168732 133.902802,154.031296 
	C149.756897,157.590378 165.924957,160.069748 180.171738,169.841660 
	C179.404236,184.378769 171.538132,194.933716 158.082977,197.463318 
	C150.860687,198.821136 143.178574,198.797897 135.820709,198.123688 
	C124.381325,197.075470 116.108437,190.915176 111.469742,180.121201 
	C110.934448,178.875595 109.193314,177.338974 107.986145,177.316986 
	C96.372826,177.105576 84.754128,177.190369 72.973557,177.190369 
	C72.921272,178.325607 72.741096,178.996964 72.884697,179.589935 
	C77.409218,198.273056 87.985168,212.265152 105.345619,220.769943 
	C121.360756,228.615692 138.521362,230.625351 155.954224,228.682526 
	C173.567200,226.719635 189.541489,220.635132 201.338593,205.382202 
	C203.756271,200.675430 206.974579,196.204926 208.445999,191.218903 
	C213.456711,174.239655 211.609192,158.330002 199.210968,144.672836 
	C190.230881,134.780869 178.464691,130.099213 165.881317,127.036217 
	C152.005188,123.658524 137.973511,120.836555 124.268639,116.876099 
	C118.092796,115.091400 112.545067,111.133163 107.038612,107.411507 
z"/>
<path fill="#FFFDFD" opacity="1.000000" stroke="none" 
	d="
M180.032272,168.977615 
	C165.924957,160.069748 149.756897,157.590378 133.902802,154.031296 
	C121.151466,151.168732 108.363373,148.554382 96.874802,141.554825 
	C80.506973,131.582504 73.548279,110.711838 78.324585,93.409805 
	C80.017166,87.278488 83.204727,81.559860 86.166885,75.628754 
	C87.488586,79.482597 87.972565,83.495804 89.293297,87.211586 
	C92.509804,96.260941 97.212555,104.254120 106.712349,108.161110 
	C112.545067,111.133163 118.092796,115.091400 124.268639,116.876099 
	C137.973511,120.836555 152.005188,123.658524 165.881317,127.036217 
	C178.464691,130.099213 190.230881,134.780869 199.210968,144.672836 
	C211.609192,158.330002 213.456711,174.239655 208.445999,191.218903 
	C206.974579,196.204926 203.756271,200.675430 200.907562,205.299133 
	C200.324463,203.907837 200.173416,202.599472 200.020142,201.291382 
	C198.393188,187.405365 192.523010,176.143845 180.032272,168.977615 
z"/>
<path fill="#F9B0AA" opacity="1.000000" stroke="none" 
	d="
M180.102005,169.409637 
	C192.523010,176.143845 198.393188,187.405365 200.020142,201.291382 
	C200.173416,202.599472 200.324463,203.907837 200.675720,205.544617 
	C189.541489,220.635132 173.567200,226.719635 155.954224,228.682526 
	C138.521362,230.625351 121.360756,228.615692 105.345619,220.769943 
	C87.985168,212.265152 77.409218,198.273056 72.884697,179.589935 
	C72.741096,178.996964 72.921272,178.325607 72.973557,177.190369 
	C84.754128,177.190369 96.372826,177.105576 107.986145,177.316986 
	C109.193314,177.338974 110.934448,178.875595 111.469742,180.121201 
	C116.108437,190.915176 124.381325,197.075470 135.820709,198.123688 
	C143.178574,198.797897 150.860687,198.821136 158.082977,197.463318 
	C171.538132,194.933716 179.404236,184.378769 180.102005,169.409637 
z"/>
<path fill="#F9B0AA" opacity="1.000000" stroke="none" 
	d="
M106.875481,107.786308 
	C97.212555,104.254120 92.509804,96.260941 89.293297,87.211586 
	C87.972565,83.495804 87.488586,79.482597 86.355118,75.344185 
	C95.037384,62.727539 107.454109,55.621822 122.097862,52.830238 
	C143.807343,48.691708 165.000412,50.148972 184.208908,62.383518 
	C197.910660,71.110634 205.674377,84.045280 209.263855,100.388733 
	C207.168808,100.549377 205.583847,100.770004 203.998062,100.776077 
	C195.166550,100.809944 186.331238,100.647629 177.505157,100.868835 
	C174.371933,100.947365 172.417252,99.889526 171.286774,97.131454 
	C163.053345,77.044464 128.786743,75.018936 114.447235,90.277145 
	C109.994370,95.015297 107.781471,100.952332 106.875481,107.786308 
z"/>
</svg>