<svg width="64" height="64" viewBox="0 0 64 64" fill="none" xmlns="http://www.w3.org/2000/svg">
<circle cx="32" cy="32" r="32" fill="black"/>
<g clip-path="url(#clip0_3973_625)">
<path d="M19.1742 42.0022C19.407 41.7041 19.7231 41.5363 20.053 41.5356H50.3778C50.5007 41.5353 50.6209 41.5817 50.7232 41.6688C50.8255 41.7559 50.9052 41.8797 50.9522 42.0247C50.9993 42.1697 51.0115 42.3292 50.9874 42.483C50.9633 42.6369 50.9039 42.7781 50.8168 42.8888L44.8266 50.5324C44.7112 50.6795 44.5742 50.7962 44.4234 50.8758C44.2726 50.9554 44.111 50.9963 43.9478 50.9962H13.6231C13.501 50.9952 13.3818 50.9484 13.2804 50.8615C13.1791 50.7747 13.1 50.6517 13.0531 50.5078C13.0062 50.364 12.9935 50.2057 13.0166 50.0527C13.0398 49.8998 13.0978 49.7589 13.1833 49.6477L19.1742 42.0022Z" fill="url(#paint0_linear_3973_625)"/>
<path d="M19.1742 13.4629C19.4095 13.17 19.7243 13.0043 20.053 13H50.3778C50.5007 12.9998 50.6209 13.0461 50.7232 13.1332C50.8255 13.2203 50.9052 13.3442 50.9522 13.4891C50.9993 13.6341 51.0115 13.7936 50.9874 13.9475C50.9633 14.1013 50.9039 14.2426 50.8168 14.3533L44.8266 21.9968C44.7112 22.144 44.5742 22.2607 44.4234 22.3403C44.2726 22.4199 44.111 22.4608 43.9478 22.4606H13.6231C13.501 22.4597 13.3818 22.4128 13.2804 22.326C13.1791 22.2391 13.1 22.1161 13.0531 21.9723C13.0062 21.8284 12.9935 21.6701 13.0166 21.5172C13.0398 21.3642 13.0978 21.2233 13.1833 21.1121L19.1742 13.4629Z" fill="url(#paint1_linear_3973_625)"/>
<path d="M44.8267 27.6419C44.7113 27.4947 44.5743 27.378 44.4235 27.2984C44.2727 27.2188 44.1111 27.1779 43.9479 27.1781H13.6231C13.5003 27.1781 13.3802 27.2246 13.278 27.3117C13.1759 27.3988 13.0962 27.5226 13.0492 27.6674C13.0021 27.8122 12.9897 27.9715 13.0136 28.1253C13.0375 28.2791 13.0966 28.4204 13.1834 28.5314L19.1743 36.1749C19.2897 36.3221 19.4267 36.4388 19.5775 36.5184C19.7283 36.598 19.8899 36.6389 20.0531 36.6387H50.3778C50.5008 36.6389 50.621 36.5926 50.7233 36.5055C50.8256 36.4184 50.9053 36.2945 50.9523 36.1496C50.9994 36.0046 51.0116 35.8451 50.9875 35.6912C50.9634 35.5374 50.904 35.3961 50.8169 35.2854L44.8267 27.6419Z" fill="url(#paint2_linear_3973_625)"/>
</g>
<defs>
<linearGradient id="paint0_linear_3973_625" x1="47.481" y1="8.43431" x2="17.3618" y2="53.6441" gradientUnits="userSpaceOnUse">
<stop stop-color="#00FFA3"/>
<stop offset="1" stop-color="#DC1FFF"/>
</linearGradient>
<linearGradient id="paint1_linear_3973_625" x1="38.3047" y1="2.32064" x2="8.1862" y2="47.5317" gradientUnits="userSpaceOnUse">
<stop stop-color="#00FFA3"/>
<stop offset="1" stop-color="#DC1FFF"/>
</linearGradient>
<linearGradient id="paint2_linear_3973_625" x1="42.8634" y1="5.35744" x2="12.7449" y2="50.5685" gradientUnits="userSpaceOnUse">
<stop stop-color="#00FFA3"/>
<stop offset="1" stop-color="#DC1FFF"/>
</linearGradient>
<clipPath id="clip0_3973_625">
<rect width="38" height="38" fill="white" transform="translate(13 13)"/>
</clipPath>
</defs>
</svg>
