<?xml version="1.0" encoding="UTF-8"?>
<!DOCTYPE svg PUBLIC "-//W3C//DTD SVG 1.1//EN" "http://www.w3.org/Graphics/SVG/1.1/DTD/svg11.dtd">
<svg xmlns="http://www.w3.org/2000/svg" version="1.1" width="2500px" height="2500px" style="shape-rendering:geometricPrecision; text-rendering:geometricPrecision; image-rendering:optimizeQuality; fill-rule:evenodd; clip-rule:evenodd" xmlns:xlink="http://www.w3.org/1999/xlink">
<g><path style="opacity:1" fill="#e81179" d="M 1199.5,-0.5 C 1232.83,-0.5 1266.17,-0.5 1299.5,-0.5C 1612.24,15.8352 1882.57,130.002 2110.5,342C 2334.94,559.072 2463.11,823.905 2495,1136.5C 2496.63,1157.65 2498.13,1178.65 2499.5,1199.5C 2499.5,1232.83 2499.5,1266.17 2499.5,1299.5C 2483.16,1612.24 2369,1882.57 2157,2110.5C 1939.93,2334.94 1675.09,2463.11 1362.5,2495C 1341.35,2496.63 1320.35,2498.13 1299.5,2499.5C 1266.17,2499.5 1232.83,2499.5 1199.5,2499.5C 887.323,2483.13 617.323,2369.3 389.5,2158C 164.483,1940.77 35.9833,1675.61 4,1362.5C 2.36718,1341.35 0.867176,1320.35 -0.5,1299.5C -0.5,1266.17 -0.5,1232.83 -0.5,1199.5C 15.8713,887.323 129.705,617.323 341,389.5C 558.227,164.483 823.393,35.9833 1136.5,4C 1157.65,2.36718 1178.65,0.867176 1199.5,-0.5 Z"/></g>
<g><path style="opacity:1" fill="#fefefe" d="M 1190.5,515.5 C 1281.49,512.248 1370.82,522.748 1458.5,547C 1572.69,580.936 1666.53,644.436 1740,737.5C 1767.95,775.387 1789.61,816.72 1805,861.5C 1806.69,878.961 1799.85,891.794 1784.5,900C 1699.23,926.535 1613.89,952.869 1528.5,979C 1506.76,983.71 1490.26,976.543 1479,957.5C 1459.63,892.811 1419.13,846.978 1357.5,820C 1326.39,807.244 1294.06,799.578 1260.5,797C 1212.87,792.612 1166.04,796.779 1120,809.5C 1090.14,818.92 1064.48,834.92 1043,857.5C 1021.46,886.531 1014.46,918.864 1022,954.5C 1029.33,987.355 1047.5,1012.19 1076.5,1029C 1111.51,1046.56 1148.18,1059.56 1186.5,1068C 1246.49,1079.33 1306.49,1090.67 1366.5,1102C 1459.48,1121.22 1549.81,1148.88 1637.5,1185C 1706.1,1214.93 1762.93,1259.77 1808,1319.5C 1839.8,1366.21 1858.13,1417.88 1863,1474.5C 1880.63,1703.51 1782.47,1858.35 1568.5,1939C 1481.92,1968.12 1392.92,1982.78 1301.5,1983C 1202.61,1986.01 1105.61,1974.01 1010.5,1947C 931.969,1923.65 860.969,1886.65 797.5,1836C 711.712,1763.66 657.212,1672.16 634,1561.5C 632.705,1542.93 640.538,1529.76 657.5,1522C 745.282,1498.55 833.282,1476.05 921.5,1454.5C 940.639,1455.48 953.805,1464.81 961,1482.5C 970.591,1519.3 985.591,1553.63 1006,1585.5C 1042.91,1635.71 1091.41,1669.54 1151.5,1687C 1228.97,1706.31 1306.97,1708.64 1385.5,1694C 1413.88,1688.21 1440.22,1677.54 1464.5,1662C 1490.62,1642.91 1508.78,1618.08 1519,1587.5C 1534.17,1525.36 1514,1478.86 1458.5,1448C 1435.19,1435.51 1410.86,1425.51 1385.5,1418C 1363.65,1411.7 1341.65,1406.04 1319.5,1401C 1277.52,1393.12 1235.52,1385.45 1193.5,1378C 1107.7,1360.97 1024.04,1336.63 942.5,1305C 873.34,1276.82 813.173,1235.65 762,1181.5C 718.79,1133.4 692.457,1077.06 683,1012.5C 656.518,792.177 746.018,641.677 951.5,561C 1006.81,540.503 1063.81,527.169 1122.5,521C 1145.3,518.933 1167.97,517.099 1190.5,515.5 Z"/></g>
</svg>
