<?xml version="1.0" encoding="UTF-8"?>
<!DOCTYPE svg PUBLIC "-//W3C//DTD SVG 1.1//EN" "http://www.w3.org/Graphics/SVG/1.1/DTD/svg11.dtd">
<svg xmlns="http://www.w3.org/2000/svg" version="1.1" width="32px" height="32px" style="shape-rendering:geometricPrecision; text-rendering:geometricPrecision; image-rendering:optimizeQuality; fill-rule:evenodd; clip-rule:evenodd" xmlns:xlink="http://www.w3.org/1999/xlink">
<g><path style="opacity:1" fill="#343434" d="M -0.5,-0.5 C 10.1667,-0.5 20.8333,-0.5 31.5,-0.5C 31.5,10.1667 31.5,20.8333 31.5,31.5C 20.8333,31.5 10.1667,31.5 -0.5,31.5C -0.5,20.8333 -0.5,10.1667 -0.5,-0.5 Z"/></g>
<g><path style="opacity:1" fill="#15986c" d="M 24.5,23.5 C 24.5,22.5 24.5,21.5 24.5,20.5C 18.5,20.5 12.5,20.5 6.5,20.5C 6.5,21.5 6.5,22.5 6.5,23.5C 5.56552,22.4324 5.23219,21.099 5.5,19.5C 12.1667,19.5 18.8333,19.5 25.5,19.5C 25.7678,21.099 25.4345,22.4324 24.5,23.5 Z"/></g>
<g><path style="opacity:1" fill="#18fbb2" d="M 24.5,23.5 C 18.5,23.5 12.5,23.5 6.5,23.5C 6.5,22.5 6.5,21.5 6.5,20.5C 12.5,20.5 18.5,20.5 24.5,20.5C 24.5,21.5 24.5,22.5 24.5,23.5 Z"/></g>
</svg>
